<svg xmlns="http://www.w3.org/2000/svg" width="64" height="64" fill="none" class="illustrator-64-2025" viewBox="0 0 64 64"><path fill="#300" d="M52.522 0H11.478C5.138 0 0 5.139 0 11.478v41.044C0 58.862 5.139 64 11.478 64h41.044C58.862 64 64 58.861 64 52.522V11.478C64 5.138 58.861 0 52.522 0"/><path fill="#FF9A00" d="M21.662 16.988h9.423L41.653 46.49h-8.63L31.568 42H20.517l-1.453 4.491h-8.278zm7.617 18.01-3.214-9.908-3.214 9.908zM42.917 18.926c0-2.114 1.63-3.479 4.095-3.479 2.422 0 3.963 1.41 3.963 3.479 0 2.113-1.541 3.566-3.963 3.566-2.554 0-4.095-1.409-4.095-3.566m.22 4.58h7.706V46.49h-7.706z"/></svg>